<svg width="743" height="192" viewBox="0 0 743 192" fill="none" xmlns="http://www.w3.org/2000/svg">
<path d="M0.00187588 189.952V10.7519H69.8899C97.5379 10.7519 120.151 19.1146 137.73 35.8399C155.309 52.3946 164.098 73.7279 164.098 99.8399C164.098 125.952 155.309 147.541 137.73 164.608C120.151 181.504 97.5379 189.952 69.8899 189.952H0.00187588ZM47.1059 151.552H69.8899C84.2259 151.552 95.4899 146.773 103.682 137.216C111.874 127.659 115.97 115.2 115.97 99.8399C115.97 84.6506 111.874 72.4479 103.682 63.2319C95.4899 53.8452 84.2259 49.1519 69.8899 49.1519H47.1059V151.552ZM239.536 191.488C216.667 191.488 198.747 185.515 185.776 173.568C172.976 161.451 166.576 145.067 166.576 124.416C166.576 103.595 172.976 87.0399 185.776 74.7519C198.576 62.4639 215.728 56.3199 237.232 56.3199C257.712 56.3199 274.267 62.2079 286.896 73.9839C299.696 85.5892 306.096 100.949 306.096 120.064C306.096 125.525 305.669 130.304 304.816 134.4H212.656V136.192C212.997 143.701 215.472 149.504 220.08 153.6C224.688 157.525 230.747 159.488 238.256 159.488C250.885 159.488 258.48 154.624 261.04 144.896H304.56C302.683 158.208 295.941 169.301 284.336 178.176C272.731 187.051 257.797 191.488 239.536 191.488ZM213.168 107.264H262.32C259.589 94.2932 251.312 87.8079 237.488 87.8079C223.323 87.8079 215.216 94.2932 213.168 107.264ZM322.678 189.952V94.4639H301.942V57.8559H322.678V48.1279C322.678 36.5226 326.347 27.3919 333.686 20.7359C341.195 14.0799 351.777 10.7519 365.43 10.7519H392.822V47.6159H375.926C369.953 47.6159 366.966 50.5172 366.966 56.3199V57.8559H452.47V189.952H407.926V94.4639H366.966V189.952H322.678ZM412.534 41.2159C407.755 36.6079 405.366 30.8906 405.366 24.0639C405.366 17.2372 407.755 11.5199 412.534 6.9119C417.313 2.30389 423.201 -0.000106812 430.198 -0.000106812C437.195 -0.000106812 443.083 2.30389 447.862 6.9119C452.641 11.5199 455.03 17.2372 455.03 24.0639C455.03 30.8906 452.641 36.6079 447.862 41.2159C443.083 45.8239 437.195 48.1279 430.198 48.1279C423.201 48.1279 417.313 45.8239 412.534 41.2159ZM532.806 191.488C509.937 191.488 492.017 185.515 479.046 173.568C466.246 161.451 459.846 145.067 459.846 124.416C459.846 103.595 466.246 87.0399 479.046 74.7519C491.846 62.4639 508.998 56.3199 530.502 56.3199C550.982 56.3199 567.537 62.2079 580.166 73.9839C592.966 85.5892 599.366 100.949 599.366 120.064C599.366 125.525 598.939 130.304 598.086 134.4H505.926V136.192C506.267 143.701 508.742 149.504 513.35 153.6C517.958 157.525 524.017 159.488 531.526 159.488C544.155 159.488 551.75 154.624 554.31 144.896H597.83C595.953 158.208 589.211 169.301 577.606 178.176C566.001 187.051 551.067 191.488 532.806 191.488ZM506.438 107.264H555.59C552.859 94.2932 544.582 87.8079 530.758 87.8079C516.593 87.8079 508.486 94.2932 506.438 107.264ZM698.38 10.7519H742.668V189.952H703.756L699.916 172.8C690.359 185.259 677.644 191.488 661.772 191.488C644.023 191.488 629.516 185.259 618.252 172.8C606.988 160.341 601.356 143.957 601.356 123.648C601.356 103.168 606.903 86.8692 617.996 74.7519C629.26 62.4639 643.681 56.3199 661.26 56.3199C676.62 56.3199 688.993 61.6959 698.38 72.4479V10.7519ZM653.58 100.352C648.801 106.325 646.412 114.176 646.412 123.904C646.412 133.632 648.801 141.483 653.58 147.456C658.359 153.429 664.759 156.416 672.78 156.416C680.972 156.416 687.372 153.429 691.98 147.456C696.588 141.483 698.892 133.632 698.892 123.904C698.892 114.176 696.588 106.325 691.98 100.352C687.372 94.3786 680.972 91.3919 672.78 91.3919C664.759 91.3919 658.359 94.3786 653.58 100.352Z" fill="white"/>
</svg>
