<svg width="500" height="500" viewBox="0 0 500 500" fill="none" xmlns="http://www.w3.org/2000/svg">
<rect width="500" height="500" rx="56" fill="white"/>
<path d="M139.8 380V128H238.08C276.96 128 308.76 139.76 333.48 163.28C358.2 186.56 370.56 216.56 370.56 253.28C370.56 290 358.2 320.36 333.48 344.36C308.76 368.12 276.96 380 238.08 380H139.8ZM238.08 326C258.24 326 274.08 319.28 285.6 305.84C297.12 292.4 302.88 274.88 302.88 253.28C302.88 231.92 297.12 214.76 285.6 201.8C274.08 188.6 258.24 182 238.08 182H206.04V326H238.08Z" fill="#0052FF"/>
<rect x="192" y="174" width="115" height="155" fill="#0052FF"/>
</svg>
