<svg width="732" height="196" viewBox="0 0 732 196" fill="none" xmlns="http://www.w3.org/2000/svg">
<path d="M138.751 191.488H101.119V171.008H100.863C97.1088 178.347 91.8181 184.235 84.9915 188.672C78.1648 192.939 69.3755 195.072 58.6235 195.072C48.7248 195.072 40.1061 193.109 32.7675 189.184C25.4288 185.088 19.2848 179.797 14.3355 173.312C9.5568 166.827 5.9728 159.317 3.58347 150.784C1.19414 142.08 -0.000531197 133.12 -0.000531197 123.904C-0.000531197 114.859 1.19414 106.069 3.58347 97.536C5.9728 88.832 9.5568 81.2374 14.3355 74.752C19.1141 68.096 25.1728 62.8054 32.5115 58.88C40.0208 54.784 48.7248 52.736 58.6235 52.736C68.3515 52.736 76.4581 54.6134 82.9435 58.368C89.4288 61.952 94.5488 66.7307 98.3035 72.704H98.5595V1.53603H138.751V191.488ZM40.1915 130.56C40.1915 140.8 43.0075 148.736 48.6395 154.368C54.2715 159.829 61.1835 162.56 69.3755 162.56C77.5675 162.56 84.4795 159.744 90.1115 154.112C95.7435 148.48 98.5595 140.629 98.5595 130.56V117.76C98.5595 107.691 95.7435 99.84 90.1115 94.208C84.4795 88.576 77.5675 85.76 69.3755 85.76C61.1835 85.76 54.2715 88.576 48.6395 94.208C43.0075 99.6694 40.1915 107.52 40.1915 117.76V130.56ZM215.897 195.072C204.121 195.072 193.796 193.109 184.921 189.184C176.047 185.088 168.708 179.797 162.905 173.312C157.273 166.827 153.007 159.317 150.105 150.784C147.375 142.08 146.009 133.12 146.009 123.904C146.009 114.859 147.375 106.069 150.105 97.536C152.836 88.832 157.017 81.2374 162.649 74.752C168.281 68.096 175.449 62.8054 184.153 58.88C192.857 54.784 203.012 52.736 214.617 52.736C225.881 52.736 235.695 54.6987 244.057 58.624C252.591 62.3787 259.588 67.4134 265.049 73.728C270.681 79.872 274.863 87.04 277.593 95.232C280.324 103.253 281.689 111.531 281.689 120.064V134.4H186.201C186.372 144.299 189.359 151.979 195.161 157.44C200.964 162.901 208.217 165.632 216.921 165.632C224.089 165.632 229.551 164.096 233.305 161.024C237.06 157.781 239.108 154.368 239.449 150.784H279.129C277.252 164.096 270.511 174.848 258.905 183.04C247.3 191.061 232.964 195.072 215.897 195.072ZM214.617 82.176C207.108 82.176 200.793 84.48 195.673 89.088C190.553 93.5254 187.481 99.9254 186.457 108.288H241.497C241.156 99.7547 238.511 93.2694 233.561 88.832C228.612 84.3947 222.297 82.176 214.617 82.176ZM305.845 191.488V88.576H277.685V56.32H305.845V38.656C305.845 26.5387 309.088 17.2374 315.573 10.752C322.229 4.09602 332.213 0.768021 345.525 0.768021H390.069V31.488H354.997C351.755 31.488 349.365 32.256 347.829 33.792C346.293 35.328 345.525 37.7174 345.525 40.96V56.32H390.069V88.576H346.037V191.488H305.845ZM428.941 45.568H426.381C419.725 45.568 414.093 43.3494 409.485 38.912C405.048 34.304 402.829 28.928 402.829 22.784C402.829 16.4694 405.048 11.0934 409.485 6.65602C414.093 2.21869 419.725 3.05176e-05 426.381 3.05176e-05H428.941C435.427 3.05176e-05 440.888 2.21869 445.325 6.65602C449.933 11.0934 452.237 16.4694 452.237 22.784C452.237 28.928 449.933 34.304 445.325 38.912C440.888 43.3494 435.427 45.568 428.941 45.568ZM386.957 88.064V56.32H447.629V191.488H407.437V88.064H386.957ZM524.677 195.072C512.901 195.072 502.576 193.109 493.701 189.184C484.827 185.088 477.488 179.797 471.685 173.312C466.053 166.827 461.787 159.317 458.885 150.784C456.155 142.08 454.789 133.12 454.789 123.904C454.789 114.859 456.155 106.069 458.885 97.536C461.616 88.832 465.797 81.2374 471.429 74.752C477.061 68.096 484.229 62.8054 492.933 58.88C501.637 54.784 511.792 52.736 523.397 52.736C534.661 52.736 544.475 54.6987 552.837 58.624C561.371 62.3787 568.368 67.4134 573.829 73.728C579.461 79.872 583.643 87.04 586.373 95.232C589.104 103.253 590.469 111.531 590.469 120.064V134.4H494.981C495.152 144.299 498.139 151.979 503.941 157.44C509.744 162.901 516.997 165.632 525.701 165.632C532.869 165.632 538.331 164.096 542.085 161.024C545.84 157.781 547.888 154.368 548.229 150.784H587.909C586.032 164.096 579.291 174.848 567.685 183.04C556.08 191.061 541.744 195.072 524.677 195.072ZM523.397 82.176C515.888 82.176 509.573 84.48 504.453 89.088C499.333 93.5254 496.261 99.9254 495.237 108.288H550.277C549.936 99.7547 547.291 93.2694 542.341 88.832C537.392 84.3947 531.077 82.176 523.397 82.176ZM731.301 191.488H693.669V171.008H693.413C689.659 178.347 684.368 184.235 677.541 188.672C670.715 192.939 661.925 195.072 651.173 195.072C641.275 195.072 632.656 193.109 625.317 189.184C617.979 185.088 611.835 179.797 606.885 173.312C602.107 166.827 598.523 159.317 596.133 150.784C593.744 142.08 592.549 133.12 592.549 123.904C592.549 114.859 593.744 106.069 596.133 97.536C598.523 88.832 602.107 81.2374 606.885 74.752C611.664 68.096 617.723 62.8054 625.061 58.88C632.571 54.784 641.275 52.736 651.173 52.736C660.901 52.736 669.008 54.6134 675.493 58.368C681.979 61.952 687.099 66.7307 690.853 72.704H691.109V1.53603H731.301V191.488ZM632.741 130.56C632.741 140.8 635.557 148.736 641.189 154.368C646.821 159.829 653.733 162.56 661.925 162.56C670.117 162.56 677.029 159.744 682.661 154.112C688.293 148.48 691.109 140.629 691.109 130.56V117.76C691.109 107.691 688.293 99.84 682.661 94.208C677.029 88.576 670.117 85.76 661.925 85.76C653.733 85.76 646.821 88.576 641.189 94.208C635.557 99.6694 632.741 107.52 632.741 117.76V130.56Z" fill="#0052FF"/>
</svg>
