<svg
  xmlns="http://www.w3.org/2000/svg"
  fill="none"
  viewBox="0 0 126 44"
  class="header-content_textLogo__4DBN3"
>
  <path
    fill="#000"
    d="M21.149 20.775c2.904 4.429 2.258 10.228-1.554 13.947-4.487 4.371-11.754 4.371-16.233 0-3.805-3.72-4.45-9.518-1.554-13.947l.254-.39 9.416 5.351 9.417-5.35z"
  ></path>
  <path
    fill="#000"
    fill-rule="evenodd"
    d="m19.602 18.398-8.116 4.614-8.118-4.614L11.486 6zm-13.75-.588 5.634 3.2 5.633-3.2-5.633-8.602z"
    clip-rule="evenodd"
  ></path>
  <path
    fill="#000"
    d="M52.17 30.45H41.46V13.554h3.267V27.47h7.442zM68.592 30.45h-3.267V13.554h3.267zM81.834 30.45V13.554h5.597q1.277-.002 2.062.092c1.35.156 2.52.625 3.492 1.398q1.481 1.16 2.244 2.98.771 1.81.77 3.982c0 1.448-.255 2.775-.77 3.989q-.774 1.808-2.244 2.966c-.98.774-2.141 1.242-3.492 1.398q-.797.095-2.062.093zm5.597-3.001c.85 0 1.474-.043 1.874-.121a3.22 3.22 0 0 0 1.8-1 5 5 0 0 0 1.082-1.924 8 8 0 0 0 .363-2.406c0-.844-.124-1.682-.37-2.441q-.358-1.14-1.097-1.916a3.13 3.13 0 0 0-1.778-.973q-.6-.119-1.874-.12h-2.28V27.44h2.28zM115.622 30.805c-1.706 0-3.187-.362-4.458-1.093a7.42 7.42 0 0 1-2.918-3.102q-1.01-1.992-1.009-4.613-.002-2.62 1.009-4.613 1.023-1.99 2.918-3.087c1.264-.738 2.752-1.1 4.458-1.1s3.187.37 4.458 1.1a7.27 7.27 0 0 1 2.904 3.087q1.023 1.994 1.023 4.613t-1.023 4.613c-.676 1.328-1.641 2.364-2.904 3.102q-1.897 1.094-4.458 1.093m.094-3.002c1.06 0 1.946-.242 2.665-.717.719-.476 1.263-1.15 1.619-2.016.363-.865.537-1.887.537-3.065q.002-2.726-1.27-4.259c-.85-1.022-2.099-1.54-3.747-1.54-1.06 0-1.945.242-2.664.717-.719.476-1.263 1.15-1.619 2.016-.363.866-.537 1.887-.537 3.066q-.002 2.724 1.27 4.258c.85 1.022 2.098 1.54 3.746 1.54"
  ></path>
</svg>
