<svg xmlns="http://www.w3.org/2000/svg" width="1200" height="630" viewBox="0 0 1200 630">
  <defs>
    <radialGradient id="g1" cx="100%" cy="0%" r="80%">
      <stop offset="0%" stop-color="rgba(34,211,238,0.08)"/>
      <stop offset="100%" stop-color="transparent"/>
    </radialGradient>
    <radialGradient id="g2" cx="0%" cy="100%" r="70%">
      <stop offset="0%" stop-color="rgba(251,191,36,0.06)"/>
      <stop offset="100%" stop-color="transparent"/>
    </radialGradient>
    <linearGradient id="textGrad" x1="0%" y1="0%" x2="100%" y2="0%">
      <stop offset="0%" stop-color="#22d3ee"/>
      <stop offset="50%" stop-color="#67e8f9"/>
      <stop offset="100%" stop-color="#fbbf24"/>
    </linearGradient>
  </defs>

  <!-- Background -->
  <rect width="1200" height="630" fill="#07080d"/>
  <rect width="1200" height="630" fill="url(#g1)"/>
  <rect width="1200" height="630" fill="url(#g2)"/>

  <!-- Border -->
  <rect x="40" y="40" width="1120" height="550" rx="24" fill="none" stroke="#2d3045" stroke-width="1"/>

  <!-- Pixel diamond (scaled up, centered at x=600, y=240) -->
  <g transform="translate(516, 100) scale(10)" shape-rendering="crispEdges">
    <rect x="3" y="0" width="1" height="1" fill="#67e8f9"/>
    <rect x="4" y="0" width="1" height="1" fill="#67e8f9"/>
    <rect x="2" y="1" width="1" height="1" fill="#67e8f9"/>
    <rect x="3" y="1" width="1" height="1" fill="#67e8f9"/>
    <rect x="4" y="1" width="1" height="1" fill="#22d3ee"/>
    <rect x="5" y="1" width="1" height="1" fill="#67e8f9"/>
    <rect x="1" y="2" width="1" height="1" fill="#67e8f9"/>
    <rect x="2" y="2" width="1" height="1" fill="#67e8f9"/>
    <rect x="3" y="2" width="1" height="1" fill="#22d3ee"/>
    <rect x="4" y="2" width="1" height="1" fill="#22d3ee"/>
    <rect x="5" y="2" width="1" height="1" fill="#22d3ee"/>
    <rect x="6" y="2" width="1" height="1" fill="#67e8f9"/>
    <rect x="0" y="3" width="1" height="1" fill="#67e8f9"/>
    <rect x="1" y="3" width="1" height="1" fill="#67e8f9"/>
    <rect x="2" y="3" width="1" height="1" fill="#22d3ee"/>
    <rect x="3" y="3" width="1" height="1" fill="#22d3ee"/>
    <rect x="4" y="3" width="1" height="1" fill="#0891b2"/>
    <rect x="5" y="3" width="1" height="1" fill="#22d3ee"/>
    <rect x="6" y="3" width="1" height="1" fill="#22d3ee"/>
    <rect x="7" y="3" width="1" height="1" fill="#67e8f9"/>
    <rect x="0" y="4" width="1" height="1" fill="#67e8f9"/>
    <rect x="1" y="4" width="1" height="1" fill="#22d3ee"/>
    <rect x="2" y="4" width="1" height="1" fill="#22d3ee"/>
    <rect x="3" y="4" width="1" height="1" fill="#0891b2"/>
    <rect x="4" y="4" width="1" height="1" fill="#0891b2"/>
    <rect x="5" y="4" width="1" height="1" fill="#0891b2"/>
    <rect x="6" y="4" width="1" height="1" fill="#22d3ee"/>
    <rect x="7" y="4" width="1" height="1" fill="#67e8f9"/>
    <rect x="1" y="5" width="1" height="1" fill="#67e8f9"/>
    <rect x="2" y="5" width="1" height="1" fill="#22d3ee"/>
    <rect x="3" y="5" width="1" height="1" fill="#22d3ee"/>
    <rect x="4" y="5" width="1" height="1" fill="#0891b2"/>
    <rect x="5" y="5" width="1" height="1" fill="#22d3ee"/>
    <rect x="6" y="5" width="1" height="1" fill="#67e8f9"/>
    <rect x="2" y="6" width="1" height="1" fill="#67e8f9"/>
    <rect x="3" y="6" width="1" height="1" fill="#22d3ee"/>
    <rect x="4" y="6" width="1" height="1" fill="#22d3ee"/>
    <rect x="5" y="6" width="1" height="1" fill="#67e8f9"/>
    <rect x="3" y="7" width="1" height="1" fill="#67e8f9"/>
    <rect x="4" y="7" width="1" height="1" fill="#67e8f9"/>
  </g>

  <!-- Title -->
  <text x="600" y="320" text-anchor="middle" font-family="system-ui, -apple-system, sans-serif" font-weight="900" font-size="64" fill="url(#textGrad)">Diamond Hands Vault</text>

  <!-- Subtitle -->
  <text x="600" y="370" text-anchor="middle" font-family="monospace" font-size="20" fill="#6b7a99" letter-spacing="0.15em">LOCK ETH UNTIL ATH</text>

  <!-- Description -->
  <text x="600" y="420" text-anchor="middle" font-family="system-ui, -apple-system, sans-serif" font-weight="300" font-size="22" fill="#4b5470">Stake ETH as wstETH · Earn rewards · Withdraw fee-free at ATH</text>

  <!-- Pills -->
  <rect x="420" y="460" width="100" height="28" rx="14" fill="rgba(34,211,238,0.1)" stroke="rgba(34,211,238,0.25)" stroke-width="1"/>
  <text x="470" y="479" text-anchor="middle" font-family="monospace" font-size="11" fill="#22d3ee" letter-spacing="0.1em">DEFI</text>

  <rect x="540" y="460" width="120" height="28" rx="14" fill="rgba(251,191,36,0.1)" stroke="rgba(251,191,36,0.25)" stroke-width="1"/>
  <text x="600" y="479" text-anchor="middle" font-family="monospace" font-size="11" fill="#fbbf24" letter-spacing="0.1em">STAKING</text>

  <rect x="680" y="460" width="100" height="28" rx="14" fill="rgba(74,222,128,0.1)" stroke="rgba(74,222,128,0.25)" stroke-width="1"/>
  <text x="730" y="479" text-anchor="middle" font-family="monospace" font-size="11" fill="#4ade80" letter-spacing="0.1em">wstETH</text>

  <!-- Footer -->
  <text x="600" y="556" text-anchor="middle" font-family="system-ui, -apple-system, sans-serif" font-size="14" fill="#4b5470">defied.cc</text>
</svg>
